<svg width="46" height="45" viewBox="0 0 46 45" fill="none" xmlns="http://www.w3.org/2000/svg">
<path fill-rule="evenodd" clip-rule="evenodd" d="M27.608 4.36609C27.7098 4.6301 27.8407 4.88712 28.0018 5.13267L36.5759 18.2019L32.643 20.8844C30.8327 22.1191 30.3493 24.6125 31.5632 26.4537C32.7773 28.2947 35.2289 28.7863 37.0392 27.5517L43.7246 22.9918C43.7828 22.9521 43.8398 22.9111 43.8953 22.8687C44.0136 22.805 44.1297 22.7347 44.2435 22.6575C46.0565 21.4272 46.5457 18.9349 45.3359 17.0909L34.5677 0.67711C34.403 0.426145 34.2153 0.200122 34.0095 0L27.608 4.36609ZM7.89313 4.59607C7.89313 2.37929 6.1262 0.582247 3.94657 0.582247C1.76693 0.582247 0 2.37929 0 4.59607V38.618C0 40.8348 1.76693 42.6318 3.94657 42.6318C6.1262 42.6318 7.89313 40.8348 7.89313 38.618V4.59607ZM23.4168 7.27271C23.4491 7.25067 23.4816 7.22918 23.5143 7.20825L27.8936 13.8835C27.867 13.9025 27.8402 13.9214 27.813 13.9398L20.8573 18.684L34.0268 38.758C35.2366 40.602 34.7474 43.0942 32.9344 44.3246C31.1212 45.5549 28.6707 45.0576 27.461 43.2135L12.3204 20.135C12.2416 20.037 12.1666 19.9343 12.0959 19.8269C10.8819 17.9859 11.3652 15.4925 13.1755 14.2578L23.4168 7.27271Z" fill="#187421"/>
</svg>
